<mxfile host="app.diagrams.net" modified="2023-03-26T19:48:12.589Z" agent="Mozilla/5.0 (Windows NT 10.0; Win64; x64) AppleWebKit/537.36 (KHTML, like Gecko) Chrome/111.0.0.0 Safari/537.36" etag="56y693pakSLJBlyX2dQo" version="21.1.1" type="device">
  <diagram name="Página-1" id="H3oXeQCz-QWvPiRJZV_W">
    <mxGraphModel dx="1372" dy="836" grid="1" gridSize="10" guides="1" tooltips="1" connect="1" arrows="1" fold="1" page="1" pageScale="1" pageWidth="827" pageHeight="1169" math="0" shadow="0">
      <root>
        <mxCell id="0" />
        <mxCell id="1" parent="0" />
        <mxCell id="uUE1drLhvX8S4U0shgP8-1" value="Primeira Forma Normal" style="swimlane;fontStyle=0;childLayout=stackLayout;horizontal=1;startSize=26;horizontalStack=0;resizeParent=1;resizeParentMax=0;resizeLast=0;collapsible=1;marginBottom=0;align=center;fontSize=14;" vertex="1" parent="1">
          <mxGeometry x="20" y="20" width="740" height="100" as="geometry" />
        </mxCell>
        <mxCell id="uUE1drLhvX8S4U0shgP8-2" value="&#xa;&lt;b id=&quot;docs-internal-guid-d2500e28-7fff-77b0-4b71-39286d12bed3&quot; style=&quot;font-weight:normal;&quot;&gt;&lt;span style=&quot;font-size: 14pt; font-family: &amp;quot;Helvetica Neue&amp;quot;, sans-serif; color: rgb(0, 0, 0); background-color: transparent; font-weight: 400; font-style: normal; font-variant: normal; text-decoration: none; vertical-align: baseline;&quot;&gt;todo atributo de uma entidade deve ser atômicos e não podem ter grupos de repetição&lt;/span&gt;&lt;/b&gt;&#xa;&#xa;" style="text;strokeColor=none;fillColor=none;spacingLeft=4;spacingRight=4;overflow=hidden;rotatable=0;points=[[0,0.5],[1,0.5]];portConstraint=eastwest;fontSize=12;whiteSpace=wrap;html=1;" vertex="1" parent="uUE1drLhvX8S4U0shgP8-1">
          <mxGeometry y="26" width="740" height="74" as="geometry" />
        </mxCell>
        <mxCell id="uUE1drLhvX8S4U0shgP8-5" value="Pessoa" style="shape=table;startSize=30;container=1;collapsible=1;childLayout=tableLayout;fixedRows=1;rowLines=0;fontStyle=1;align=center;resizeLast=1;html=1;" vertex="1" parent="1">
          <mxGeometry x="20" y="140" width="180" height="210" as="geometry" />
        </mxCell>
        <mxCell id="uUE1drLhvX8S4U0shgP8-6" value="" style="shape=tableRow;horizontal=0;startSize=0;swimlaneHead=0;swimlaneBody=0;fillColor=none;collapsible=0;dropTarget=0;points=[[0,0.5],[1,0.5]];portConstraint=eastwest;top=0;left=0;right=0;bottom=1;" vertex="1" parent="uUE1drLhvX8S4U0shgP8-5">
          <mxGeometry y="30" width="180" height="30" as="geometry" />
        </mxCell>
        <mxCell id="uUE1drLhvX8S4U0shgP8-7" value="PK" style="shape=partialRectangle;connectable=0;fillColor=none;top=0;left=0;bottom=0;right=0;fontStyle=1;overflow=hidden;whiteSpace=wrap;html=1;" vertex="1" parent="uUE1drLhvX8S4U0shgP8-6">
          <mxGeometry width="30" height="30" as="geometry">
            <mxRectangle width="30" height="30" as="alternateBounds" />
          </mxGeometry>
        </mxCell>
        <mxCell id="uUE1drLhvX8S4U0shgP8-8" value="ID_Pessoa" style="shape=partialRectangle;connectable=0;fillColor=none;top=0;left=0;bottom=0;right=0;align=left;spacingLeft=6;fontStyle=5;overflow=hidden;whiteSpace=wrap;html=1;" vertex="1" parent="uUE1drLhvX8S4U0shgP8-6">
          <mxGeometry x="30" width="150" height="30" as="geometry">
            <mxRectangle width="150" height="30" as="alternateBounds" />
          </mxGeometry>
        </mxCell>
        <mxCell id="uUE1drLhvX8S4U0shgP8-9" value="" style="shape=tableRow;horizontal=0;startSize=0;swimlaneHead=0;swimlaneBody=0;fillColor=none;collapsible=0;dropTarget=0;points=[[0,0.5],[1,0.5]];portConstraint=eastwest;top=0;left=0;right=0;bottom=0;" vertex="1" parent="uUE1drLhvX8S4U0shgP8-5">
          <mxGeometry y="60" width="180" height="30" as="geometry" />
        </mxCell>
        <mxCell id="uUE1drLhvX8S4U0shgP8-10" value="" style="shape=partialRectangle;connectable=0;fillColor=none;top=0;left=0;bottom=0;right=0;editable=1;overflow=hidden;whiteSpace=wrap;html=1;" vertex="1" parent="uUE1drLhvX8S4U0shgP8-9">
          <mxGeometry width="30" height="30" as="geometry">
            <mxRectangle width="30" height="30" as="alternateBounds" />
          </mxGeometry>
        </mxCell>
        <mxCell id="uUE1drLhvX8S4U0shgP8-11" value="nome" style="shape=partialRectangle;connectable=0;fillColor=none;top=0;left=0;bottom=0;right=0;align=left;spacingLeft=6;overflow=hidden;whiteSpace=wrap;html=1;" vertex="1" parent="uUE1drLhvX8S4U0shgP8-9">
          <mxGeometry x="30" width="150" height="30" as="geometry">
            <mxRectangle width="150" height="30" as="alternateBounds" />
          </mxGeometry>
        </mxCell>
        <mxCell id="uUE1drLhvX8S4U0shgP8-12" value="" style="shape=tableRow;horizontal=0;startSize=0;swimlaneHead=0;swimlaneBody=0;fillColor=none;collapsible=0;dropTarget=0;points=[[0,0.5],[1,0.5]];portConstraint=eastwest;top=0;left=0;right=0;bottom=0;" vertex="1" parent="uUE1drLhvX8S4U0shgP8-5">
          <mxGeometry y="90" width="180" height="30" as="geometry" />
        </mxCell>
        <mxCell id="uUE1drLhvX8S4U0shgP8-13" value="" style="shape=partialRectangle;connectable=0;fillColor=none;top=0;left=0;bottom=0;right=0;editable=1;overflow=hidden;whiteSpace=wrap;html=1;" vertex="1" parent="uUE1drLhvX8S4U0shgP8-12">
          <mxGeometry width="30" height="30" as="geometry">
            <mxRectangle width="30" height="30" as="alternateBounds" />
          </mxGeometry>
        </mxCell>
        <mxCell id="uUE1drLhvX8S4U0shgP8-14" value="cpf" style="shape=partialRectangle;connectable=0;fillColor=none;top=0;left=0;bottom=0;right=0;align=left;spacingLeft=6;overflow=hidden;whiteSpace=wrap;html=1;" vertex="1" parent="uUE1drLhvX8S4U0shgP8-12">
          <mxGeometry x="30" width="150" height="30" as="geometry">
            <mxRectangle width="150" height="30" as="alternateBounds" />
          </mxGeometry>
        </mxCell>
        <mxCell id="uUE1drLhvX8S4U0shgP8-15" value="" style="shape=tableRow;horizontal=0;startSize=0;swimlaneHead=0;swimlaneBody=0;fillColor=none;collapsible=0;dropTarget=0;points=[[0,0.5],[1,0.5]];portConstraint=eastwest;top=0;left=0;right=0;bottom=0;" vertex="1" parent="uUE1drLhvX8S4U0shgP8-5">
          <mxGeometry y="120" width="180" height="30" as="geometry" />
        </mxCell>
        <mxCell id="uUE1drLhvX8S4U0shgP8-16" value="" style="shape=partialRectangle;connectable=0;fillColor=none;top=0;left=0;bottom=0;right=0;editable=1;overflow=hidden;whiteSpace=wrap;html=1;" vertex="1" parent="uUE1drLhvX8S4U0shgP8-15">
          <mxGeometry width="30" height="30" as="geometry">
            <mxRectangle width="30" height="30" as="alternateBounds" />
          </mxGeometry>
        </mxCell>
        <mxCell id="uUE1drLhvX8S4U0shgP8-17" value="logradouro" style="shape=partialRectangle;connectable=0;fillColor=none;top=0;left=0;bottom=0;right=0;align=left;spacingLeft=6;overflow=hidden;whiteSpace=wrap;html=1;" vertex="1" parent="uUE1drLhvX8S4U0shgP8-15">
          <mxGeometry x="30" width="150" height="30" as="geometry">
            <mxRectangle width="150" height="30" as="alternateBounds" />
          </mxGeometry>
        </mxCell>
        <mxCell id="uUE1drLhvX8S4U0shgP8-18" style="shape=tableRow;horizontal=0;startSize=0;swimlaneHead=0;swimlaneBody=0;fillColor=none;collapsible=0;dropTarget=0;points=[[0,0.5],[1,0.5]];portConstraint=eastwest;top=0;left=0;right=0;bottom=0;" vertex="1" parent="uUE1drLhvX8S4U0shgP8-5">
          <mxGeometry y="150" width="180" height="30" as="geometry" />
        </mxCell>
        <mxCell id="uUE1drLhvX8S4U0shgP8-19" style="shape=partialRectangle;connectable=0;fillColor=none;top=0;left=0;bottom=0;right=0;editable=1;overflow=hidden;whiteSpace=wrap;html=1;" vertex="1" parent="uUE1drLhvX8S4U0shgP8-18">
          <mxGeometry width="30" height="30" as="geometry">
            <mxRectangle width="30" height="30" as="alternateBounds" />
          </mxGeometry>
        </mxCell>
        <mxCell id="uUE1drLhvX8S4U0shgP8-20" value="numero" style="shape=partialRectangle;connectable=0;fillColor=none;top=0;left=0;bottom=0;right=0;align=left;spacingLeft=6;overflow=hidden;whiteSpace=wrap;html=1;" vertex="1" parent="uUE1drLhvX8S4U0shgP8-18">
          <mxGeometry x="30" width="150" height="30" as="geometry">
            <mxRectangle width="150" height="30" as="alternateBounds" />
          </mxGeometry>
        </mxCell>
        <mxCell id="uUE1drLhvX8S4U0shgP8-21" style="shape=tableRow;horizontal=0;startSize=0;swimlaneHead=0;swimlaneBody=0;fillColor=none;collapsible=0;dropTarget=0;points=[[0,0.5],[1,0.5]];portConstraint=eastwest;top=0;left=0;right=0;bottom=0;" vertex="1" parent="uUE1drLhvX8S4U0shgP8-5">
          <mxGeometry y="180" width="180" height="30" as="geometry" />
        </mxCell>
        <mxCell id="uUE1drLhvX8S4U0shgP8-22" style="shape=partialRectangle;connectable=0;fillColor=none;top=0;left=0;bottom=0;right=0;editable=1;overflow=hidden;whiteSpace=wrap;html=1;" vertex="1" parent="uUE1drLhvX8S4U0shgP8-21">
          <mxGeometry width="30" height="30" as="geometry">
            <mxRectangle width="30" height="30" as="alternateBounds" />
          </mxGeometry>
        </mxCell>
        <mxCell id="uUE1drLhvX8S4U0shgP8-23" value="cep" style="shape=partialRectangle;connectable=0;fillColor=none;top=0;left=0;bottom=0;right=0;align=left;spacingLeft=6;overflow=hidden;whiteSpace=wrap;html=1;" vertex="1" parent="uUE1drLhvX8S4U0shgP8-21">
          <mxGeometry x="30" width="150" height="30" as="geometry">
            <mxRectangle width="150" height="30" as="alternateBounds" />
          </mxGeometry>
        </mxCell>
        <mxCell id="uUE1drLhvX8S4U0shgP8-24" value="" style="endArrow=classic;html=1;rounded=0;" edge="1" parent="1">
          <mxGeometry width="50" height="50" relative="1" as="geometry">
            <mxPoint x="230" y="250" as="sourcePoint" />
            <mxPoint x="310" y="250" as="targetPoint" />
          </mxGeometry>
        </mxCell>
        <mxCell id="uUE1drLhvX8S4U0shgP8-25" value="Pessoa" style="shape=table;startSize=30;container=1;collapsible=1;childLayout=tableLayout;fixedRows=1;rowLines=0;fontStyle=1;align=center;resizeLast=1;html=1;" vertex="1" parent="1">
          <mxGeometry x="324" y="140" width="180" height="150" as="geometry" />
        </mxCell>
        <mxCell id="uUE1drLhvX8S4U0shgP8-26" value="" style="shape=tableRow;horizontal=0;startSize=0;swimlaneHead=0;swimlaneBody=0;fillColor=none;collapsible=0;dropTarget=0;points=[[0,0.5],[1,0.5]];portConstraint=eastwest;top=0;left=0;right=0;bottom=1;" vertex="1" parent="uUE1drLhvX8S4U0shgP8-25">
          <mxGeometry y="30" width="180" height="30" as="geometry" />
        </mxCell>
        <mxCell id="uUE1drLhvX8S4U0shgP8-27" value="PK" style="shape=partialRectangle;connectable=0;fillColor=none;top=0;left=0;bottom=0;right=0;fontStyle=1;overflow=hidden;whiteSpace=wrap;html=1;" vertex="1" parent="uUE1drLhvX8S4U0shgP8-26">
          <mxGeometry width="30" height="30" as="geometry">
            <mxRectangle width="30" height="30" as="alternateBounds" />
          </mxGeometry>
        </mxCell>
        <mxCell id="uUE1drLhvX8S4U0shgP8-28" value="ID_Pessoa" style="shape=partialRectangle;connectable=0;fillColor=none;top=0;left=0;bottom=0;right=0;align=left;spacingLeft=6;fontStyle=5;overflow=hidden;whiteSpace=wrap;html=1;" vertex="1" parent="uUE1drLhvX8S4U0shgP8-26">
          <mxGeometry x="30" width="150" height="30" as="geometry">
            <mxRectangle width="150" height="30" as="alternateBounds" />
          </mxGeometry>
        </mxCell>
        <mxCell id="uUE1drLhvX8S4U0shgP8-29" value="" style="shape=tableRow;horizontal=0;startSize=0;swimlaneHead=0;swimlaneBody=0;fillColor=none;collapsible=0;dropTarget=0;points=[[0,0.5],[1,0.5]];portConstraint=eastwest;top=0;left=0;right=0;bottom=0;" vertex="1" parent="uUE1drLhvX8S4U0shgP8-25">
          <mxGeometry y="60" width="180" height="30" as="geometry" />
        </mxCell>
        <mxCell id="uUE1drLhvX8S4U0shgP8-30" value="" style="shape=partialRectangle;connectable=0;fillColor=none;top=0;left=0;bottom=0;right=0;editable=1;overflow=hidden;whiteSpace=wrap;html=1;" vertex="1" parent="uUE1drLhvX8S4U0shgP8-29">
          <mxGeometry width="30" height="30" as="geometry">
            <mxRectangle width="30" height="30" as="alternateBounds" />
          </mxGeometry>
        </mxCell>
        <mxCell id="uUE1drLhvX8S4U0shgP8-31" value="nome" style="shape=partialRectangle;connectable=0;fillColor=none;top=0;left=0;bottom=0;right=0;align=left;spacingLeft=6;overflow=hidden;whiteSpace=wrap;html=1;" vertex="1" parent="uUE1drLhvX8S4U0shgP8-29">
          <mxGeometry x="30" width="150" height="30" as="geometry">
            <mxRectangle width="150" height="30" as="alternateBounds" />
          </mxGeometry>
        </mxCell>
        <mxCell id="uUE1drLhvX8S4U0shgP8-32" value="" style="shape=tableRow;horizontal=0;startSize=0;swimlaneHead=0;swimlaneBody=0;fillColor=none;collapsible=0;dropTarget=0;points=[[0,0.5],[1,0.5]];portConstraint=eastwest;top=0;left=0;right=0;bottom=0;" vertex="1" parent="uUE1drLhvX8S4U0shgP8-25">
          <mxGeometry y="90" width="180" height="30" as="geometry" />
        </mxCell>
        <mxCell id="uUE1drLhvX8S4U0shgP8-33" value="" style="shape=partialRectangle;connectable=0;fillColor=none;top=0;left=0;bottom=0;right=0;editable=1;overflow=hidden;whiteSpace=wrap;html=1;" vertex="1" parent="uUE1drLhvX8S4U0shgP8-32">
          <mxGeometry width="30" height="30" as="geometry">
            <mxRectangle width="30" height="30" as="alternateBounds" />
          </mxGeometry>
        </mxCell>
        <mxCell id="uUE1drLhvX8S4U0shgP8-34" value="cpf" style="shape=partialRectangle;connectable=0;fillColor=none;top=0;left=0;bottom=0;right=0;align=left;spacingLeft=6;overflow=hidden;whiteSpace=wrap;html=1;" vertex="1" parent="uUE1drLhvX8S4U0shgP8-32">
          <mxGeometry x="30" width="150" height="30" as="geometry">
            <mxRectangle width="150" height="30" as="alternateBounds" />
          </mxGeometry>
        </mxCell>
        <mxCell id="uUE1drLhvX8S4U0shgP8-35" value="" style="shape=tableRow;horizontal=0;startSize=0;swimlaneHead=0;swimlaneBody=0;fillColor=none;collapsible=0;dropTarget=0;points=[[0,0.5],[1,0.5]];portConstraint=eastwest;top=0;left=0;right=0;bottom=0;" vertex="1" parent="uUE1drLhvX8S4U0shgP8-25">
          <mxGeometry y="120" width="180" height="30" as="geometry" />
        </mxCell>
        <mxCell id="uUE1drLhvX8S4U0shgP8-36" value="FK" style="shape=partialRectangle;connectable=0;fillColor=none;top=0;left=0;bottom=0;right=0;editable=1;overflow=hidden;whiteSpace=wrap;html=1;" vertex="1" parent="uUE1drLhvX8S4U0shgP8-35">
          <mxGeometry width="30" height="30" as="geometry">
            <mxRectangle width="30" height="30" as="alternateBounds" />
          </mxGeometry>
        </mxCell>
        <mxCell id="uUE1drLhvX8S4U0shgP8-37" value="id_endereço" style="shape=partialRectangle;connectable=0;fillColor=none;top=0;left=0;bottom=0;right=0;align=left;spacingLeft=6;overflow=hidden;whiteSpace=wrap;html=1;" vertex="1" parent="uUE1drLhvX8S4U0shgP8-35">
          <mxGeometry x="30" width="150" height="30" as="geometry">
            <mxRectangle width="150" height="30" as="alternateBounds" />
          </mxGeometry>
        </mxCell>
        <mxCell id="uUE1drLhvX8S4U0shgP8-44" value="Endereço" style="shape=table;startSize=30;container=1;collapsible=1;childLayout=tableLayout;fixedRows=1;rowLines=0;fontStyle=1;align=center;resizeLast=1;html=1;" vertex="1" parent="1">
          <mxGeometry x="560" y="140" width="180" height="150" as="geometry" />
        </mxCell>
        <mxCell id="uUE1drLhvX8S4U0shgP8-45" value="" style="shape=tableRow;horizontal=0;startSize=0;swimlaneHead=0;swimlaneBody=0;fillColor=none;collapsible=0;dropTarget=0;points=[[0,0.5],[1,0.5]];portConstraint=eastwest;top=0;left=0;right=0;bottom=1;" vertex="1" parent="uUE1drLhvX8S4U0shgP8-44">
          <mxGeometry y="30" width="180" height="30" as="geometry" />
        </mxCell>
        <mxCell id="uUE1drLhvX8S4U0shgP8-46" value="PK" style="shape=partialRectangle;connectable=0;fillColor=none;top=0;left=0;bottom=0;right=0;fontStyle=1;overflow=hidden;whiteSpace=wrap;html=1;" vertex="1" parent="uUE1drLhvX8S4U0shgP8-45">
          <mxGeometry width="30" height="30" as="geometry">
            <mxRectangle width="30" height="30" as="alternateBounds" />
          </mxGeometry>
        </mxCell>
        <mxCell id="uUE1drLhvX8S4U0shgP8-47" value="ID_Endereço" style="shape=partialRectangle;connectable=0;fillColor=none;top=0;left=0;bottom=0;right=0;align=left;spacingLeft=6;fontStyle=5;overflow=hidden;whiteSpace=wrap;html=1;" vertex="1" parent="uUE1drLhvX8S4U0shgP8-45">
          <mxGeometry x="30" width="150" height="30" as="geometry">
            <mxRectangle width="150" height="30" as="alternateBounds" />
          </mxGeometry>
        </mxCell>
        <mxCell id="uUE1drLhvX8S4U0shgP8-54" value="" style="shape=tableRow;horizontal=0;startSize=0;swimlaneHead=0;swimlaneBody=0;fillColor=none;collapsible=0;dropTarget=0;points=[[0,0.5],[1,0.5]];portConstraint=eastwest;top=0;left=0;right=0;bottom=0;" vertex="1" parent="uUE1drLhvX8S4U0shgP8-44">
          <mxGeometry y="60" width="180" height="30" as="geometry" />
        </mxCell>
        <mxCell id="uUE1drLhvX8S4U0shgP8-55" value="" style="shape=partialRectangle;connectable=0;fillColor=none;top=0;left=0;bottom=0;right=0;editable=1;overflow=hidden;whiteSpace=wrap;html=1;" vertex="1" parent="uUE1drLhvX8S4U0shgP8-54">
          <mxGeometry width="30" height="30" as="geometry">
            <mxRectangle width="30" height="30" as="alternateBounds" />
          </mxGeometry>
        </mxCell>
        <mxCell id="uUE1drLhvX8S4U0shgP8-56" value="logradouro" style="shape=partialRectangle;connectable=0;fillColor=none;top=0;left=0;bottom=0;right=0;align=left;spacingLeft=6;overflow=hidden;whiteSpace=wrap;html=1;" vertex="1" parent="uUE1drLhvX8S4U0shgP8-54">
          <mxGeometry x="30" width="150" height="30" as="geometry">
            <mxRectangle width="150" height="30" as="alternateBounds" />
          </mxGeometry>
        </mxCell>
        <mxCell id="uUE1drLhvX8S4U0shgP8-57" style="shape=tableRow;horizontal=0;startSize=0;swimlaneHead=0;swimlaneBody=0;fillColor=none;collapsible=0;dropTarget=0;points=[[0,0.5],[1,0.5]];portConstraint=eastwest;top=0;left=0;right=0;bottom=0;" vertex="1" parent="uUE1drLhvX8S4U0shgP8-44">
          <mxGeometry y="90" width="180" height="30" as="geometry" />
        </mxCell>
        <mxCell id="uUE1drLhvX8S4U0shgP8-58" style="shape=partialRectangle;connectable=0;fillColor=none;top=0;left=0;bottom=0;right=0;editable=1;overflow=hidden;whiteSpace=wrap;html=1;" vertex="1" parent="uUE1drLhvX8S4U0shgP8-57">
          <mxGeometry width="30" height="30" as="geometry">
            <mxRectangle width="30" height="30" as="alternateBounds" />
          </mxGeometry>
        </mxCell>
        <mxCell id="uUE1drLhvX8S4U0shgP8-59" value="numero" style="shape=partialRectangle;connectable=0;fillColor=none;top=0;left=0;bottom=0;right=0;align=left;spacingLeft=6;overflow=hidden;whiteSpace=wrap;html=1;" vertex="1" parent="uUE1drLhvX8S4U0shgP8-57">
          <mxGeometry x="30" width="150" height="30" as="geometry">
            <mxRectangle width="150" height="30" as="alternateBounds" />
          </mxGeometry>
        </mxCell>
        <mxCell id="uUE1drLhvX8S4U0shgP8-60" style="shape=tableRow;horizontal=0;startSize=0;swimlaneHead=0;swimlaneBody=0;fillColor=none;collapsible=0;dropTarget=0;points=[[0,0.5],[1,0.5]];portConstraint=eastwest;top=0;left=0;right=0;bottom=0;" vertex="1" parent="uUE1drLhvX8S4U0shgP8-44">
          <mxGeometry y="120" width="180" height="30" as="geometry" />
        </mxCell>
        <mxCell id="uUE1drLhvX8S4U0shgP8-61" style="shape=partialRectangle;connectable=0;fillColor=none;top=0;left=0;bottom=0;right=0;editable=1;overflow=hidden;whiteSpace=wrap;html=1;" vertex="1" parent="uUE1drLhvX8S4U0shgP8-60">
          <mxGeometry width="30" height="30" as="geometry">
            <mxRectangle width="30" height="30" as="alternateBounds" />
          </mxGeometry>
        </mxCell>
        <mxCell id="uUE1drLhvX8S4U0shgP8-62" value="cep" style="shape=partialRectangle;connectable=0;fillColor=none;top=0;left=0;bottom=0;right=0;align=left;spacingLeft=6;overflow=hidden;whiteSpace=wrap;html=1;" vertex="1" parent="uUE1drLhvX8S4U0shgP8-60">
          <mxGeometry x="30" width="150" height="30" as="geometry">
            <mxRectangle width="150" height="30" as="alternateBounds" />
          </mxGeometry>
        </mxCell>
        <mxCell id="uUE1drLhvX8S4U0shgP8-64" value="" style="edgeStyle=entityRelationEdgeStyle;fontSize=12;html=1;endArrow=ERoneToMany;startArrow=ERmandOne;rounded=0;entryX=1;entryY=0.5;entryDx=0;entryDy=0;exitX=0;exitY=0.5;exitDx=0;exitDy=0;" edge="1" parent="1" source="uUE1drLhvX8S4U0shgP8-45" target="uUE1drLhvX8S4U0shgP8-35">
          <mxGeometry width="100" height="100" relative="1" as="geometry">
            <mxPoint x="540" y="190" as="sourcePoint" />
            <mxPoint x="550" y="180" as="targetPoint" />
          </mxGeometry>
        </mxCell>
        <mxCell id="uUE1drLhvX8S4U0shgP8-74" value="Segunda Forma Normal" style="swimlane;fontStyle=0;childLayout=stackLayout;horizontal=1;startSize=26;horizontalStack=0;resizeParent=1;resizeParentMax=0;resizeLast=0;collapsible=1;marginBottom=0;align=center;fontSize=14;" vertex="1" parent="1">
          <mxGeometry x="20" y="370" width="740" height="120" as="geometry" />
        </mxCell>
        <mxCell id="uUE1drLhvX8S4U0shgP8-75" value="&lt;p style=&quot;line-height:1.7999999999999998;margin-top:0pt;margin-bottom:0pt;&quot; dir=&quot;ltr&quot;&gt;&lt;/p&gt;&lt;p style=&quot;line-height:1.7999999999999998;margin-top:0pt;margin-bottom:0pt;&quot; dir=&quot;ltr&quot;&gt;&lt;/p&gt;&lt;div&gt;&lt;/div&gt;&lt;span style=&quot;font-size: 14pt; font-family: &amp;quot;Helvetica Neue&amp;quot;, sans-serif; background-color: transparent; font-variant-numeric: normal; font-variant-east-asian: normal; font-variant-alternates: normal; vertical-align: baseline;&quot;&gt;Sendo assim, temos que ter dependência total dos atributos pela pk.&lt;/span&gt;&lt;p&gt;&lt;/p&gt;&lt;span style=&quot;font-size: 14pt; font-family: &amp;quot;Helvetica Neue&amp;quot;, sans-serif; background-color: transparent; font-variant-numeric: normal; font-variant-east-asian: normal; font-variant-alternates: normal; vertical-align: baseline;&quot;&gt;Nessa forma temos a FN 1 e temos também que cada um dos atributos que não pertencer a chave primária e não deve ser dependente parcial desta chave.&lt;/span&gt;&lt;p&gt;&lt;/p&gt;&lt;span id=&quot;docs-internal-guid-e3156c14-7fff-c700-ac70-d17873a9e6fc&quot;&gt;&lt;/span&gt;" style="text;strokeColor=none;fillColor=none;spacingLeft=4;spacingRight=4;overflow=hidden;rotatable=0;points=[[0,0.5],[1,0.5]];portConstraint=eastwest;fontSize=12;whiteSpace=wrap;html=1;" vertex="1" parent="uUE1drLhvX8S4U0shgP8-74">
          <mxGeometry y="26" width="740" height="94" as="geometry" />
        </mxCell>
        <mxCell id="uUE1drLhvX8S4U0shgP8-78" value="&lt;b id=&quot;docs-internal-guid-0b45e700-7fff-cbf6-3a64-6d4bef7c2776&quot; style=&quot;font-weight:normal;&quot;&gt;&lt;img src=&quot;https://lh4.googleusercontent.com/0F7JaNwokjkQlRZKSajWDnghL_AlJzEKPzLbfvpIMoWQzhQFv8gOyfHhmYaW1j6jK0_SaOIxY6nfNR0AqQt_5Xfo0nfov3ELQ_y1XoVF6qiAY07yvP6MHMEr8vqnB2r3hwkYL9vx5vf-ONZ3OAuJOU0MZg=s2048&quot; height=&quot;391px;&quot; width=&quot;338px;&quot;&gt;&lt;/b&gt;" style="text;whiteSpace=wrap;html=1;" vertex="1" parent="1">
          <mxGeometry x="20" y="490" width="360" height="400" as="geometry" />
        </mxCell>
        <mxCell id="uUE1drLhvX8S4U0shgP8-79" value="&lt;b id=&quot;docs-internal-guid-27597949-7fff-7b24-e0c3-e90922e8f4b0&quot; style=&quot;font-weight:normal;&quot;&gt;&lt;img src=&quot;https://lh4.googleusercontent.com/q9Ckx72OAKvg_edkuRAbKiMlzf0s-UTzbHJN-y6l5Vp08xz1uLKhs4GpB__tipkU7WlwROxSmW439Vs0088DXwbElRGBwEnr6KMSrDr8YzXn9ycqdC3PNahwztLbFf3OinY6c9VljXC7wSVsEtYDV76C3w=s2048&quot; height=&quot;285px;&quot; width=&quot;668px;&quot;&gt;&lt;/b&gt;" style="text;whiteSpace=wrap;html=1;" vertex="1" parent="1">
          <mxGeometry x="410" y="510" width="560" height="310" as="geometry" />
        </mxCell>
        <mxCell id="uUE1drLhvX8S4U0shgP8-80" value="" style="endArrow=classic;html=1;rounded=0;entryX=0.009;entryY=0.645;entryDx=0;entryDy=0;entryPerimeter=0;" edge="1" parent="1" target="uUE1drLhvX8S4U0shgP8-79">
          <mxGeometry width="50" height="50" relative="1" as="geometry">
            <mxPoint x="365" y="710" as="sourcePoint" />
            <mxPoint x="415" y="660" as="targetPoint" />
          </mxGeometry>
        </mxCell>
        <mxCell id="uUE1drLhvX8S4U0shgP8-81" value="Terceira Forma Normal" style="swimlane;fontStyle=0;childLayout=stackLayout;horizontal=1;startSize=26;horizontalStack=0;resizeParent=1;resizeParentMax=0;resizeLast=0;collapsible=1;marginBottom=0;align=center;fontSize=14;" vertex="1" parent="1">
          <mxGeometry x="30" y="910" width="640" height="120" as="geometry" />
        </mxCell>
        <mxCell id="uUE1drLhvX8S4U0shgP8-82" value="&#xa;&lt;b id=&quot;docs-internal-guid-8149f895-7fff-7694-2d36-caf9b7ed5498&quot; style=&quot;font-weight:normal;&quot;&gt;&lt;span style=&quot;font-size: 14pt; font-family: &amp;quot;Helvetica Neue&amp;quot;, sans-serif; color: rgb(0, 0, 0); background-color: transparent; font-weight: 400; font-style: normal; font-variant: normal; text-decoration: none; vertical-align: baseline;&quot;&gt;Nessa forma temos a FN 2 e temos também que cada um dos atributos que não pertencer a chave primária, não deve depender de outro atributos para ser definido. Todos provém da PK.&lt;/span&gt;&lt;/b&gt;&#xa;&#xa;" style="text;strokeColor=none;fillColor=none;spacingLeft=4;spacingRight=4;overflow=hidden;rotatable=0;points=[[0,0.5],[1,0.5]];portConstraint=eastwest;fontSize=12;whiteSpace=wrap;html=1;" vertex="1" parent="uUE1drLhvX8S4U0shgP8-81">
          <mxGeometry y="26" width="640" height="94" as="geometry" />
        </mxCell>
        <mxCell id="uUE1drLhvX8S4U0shgP8-85" value="&lt;b id=&quot;docs-internal-guid-fb90a89a-7fff-ef2f-d043-f819eea58ccb&quot; style=&quot;font-weight:normal;&quot;&gt;&lt;img src=&quot;https://lh5.googleusercontent.com/WRCMdFHY0n6TrNjI0ZQ7XtEpZoIxTeF0lOX7CW_FDlAuiOxIaKqxqLlEGwEF9YJt8uJ7W2vToeYOuGki6-1GzK_QzEmtfzqy9fUWkQROeZZyokM-iePReVl2h2oXmX0-wXfyYzmJcUHNuZovgWnRAALarA=s2048&quot; height=&quot;249px;&quot; width=&quot;297px;&quot;&gt;&lt;/b&gt;" style="text;whiteSpace=wrap;html=1;" vertex="1" parent="1">
          <mxGeometry x="30" y="1050" width="330" height="280" as="geometry" />
        </mxCell>
        <mxCell id="uUE1drLhvX8S4U0shgP8-86" value="" style="endArrow=classic;html=1;rounded=0;entryX=0.009;entryY=0.645;entryDx=0;entryDy=0;entryPerimeter=0;" edge="1" parent="1">
          <mxGeometry width="50" height="50" relative="1" as="geometry">
            <mxPoint x="350" y="1168" as="sourcePoint" />
            <mxPoint x="400" y="1168" as="targetPoint" />
          </mxGeometry>
        </mxCell>
        <mxCell id="uUE1drLhvX8S4U0shgP8-87" value="&lt;b id=&quot;docs-internal-guid-cefda3b4-7fff-344f-fe21-4cdfb1939724&quot; style=&quot;font-weight:normal;&quot;&gt;&lt;img src=&quot;https://lh6.googleusercontent.com/6UmXZuCnEfTxwt2ZJIHuSdqkhfvoAOxl7iNk2GoV35ylcIzEbcc4NTbN3IxpzrGhlWFQR_im4DEiCgUo6duNkgLrZnzrYYPyPEpX5Vn1PVFWQACfIc1ZmtTwtYMsvms3b06zLT3zXKR1YrCosi1L2zQ-6w=s2048&quot; height=&quot;242px;&quot; width=&quot;800px;&quot;&gt;&lt;/b&gt;" style="text;whiteSpace=wrap;html=1;" vertex="1" parent="1">
          <mxGeometry x="420" y="1060" width="560" height="270" as="geometry" />
        </mxCell>
      </root>
    </mxGraphModel>
  </diagram>
</mxfile>
